<?xml version="1.0" ?><svg height="250px" version="1.1" viewBox="0 0 250 250" width="250px" xmlns="http://www.w3.org/2000/svg" xmlns:xlink="http://www.w3.org/1999/xlink"><title/><desc/><g fill="none" fill-rule="evenodd" id="teamspeak_logo" stroke="none" stroke-width="1"><path d="M55.2513584,122.212249 C59.408618,120.290942 63.4336759,119.760746 67.3265322,120.621661 C73.9151583,122.078752 84.234153,129.23648 97.064128,139.631795 C105.330329,146.329372 112.55986,154.139816 118.752723,163.063126 C119.259079,163.792729 119.561966,164.644035 119.630242,165.529504 C119.794628,167.661417 119.332323,170.038679 118.243327,172.66129 C116.533087,176.78003 112.874237,179.891335 107.266777,181.995205 C106.740706,182.192586 106.185127,182.29988 105.623389,182.31258 C84.8036174,182.783282 72.3500441,181.948312 68.2626688,179.807671 C56.0527548,173.413093 49.7531635,158.984866 49.107142,145.752524 C48.7113709,137.646015 49.9564483,130.590236 52.842374,124.585187 C53.3454201,123.538444 54.197151,122.699458 55.2513584,122.212249 Z M30.8441567,114.882049 L30.8441596,159.195562 C30.8441596,160.239705 30.3388489,161.219715 29.4871164,161.827439 C26.3703516,164.051298 21.742512,164.24769 15.6035978,162.416615 C10.8339676,160.993961 6.92193928,158.492542 3.86751291,154.912358 C1.37089717,151.986006 -2.84217094e-14,148.269723 -2.84217094e-14,144.428161 L-2.84217094e-14,117.648919 C-2.84217094e-14,110.91048 3.50417554,104.653696 9.25842011,101.117805 L15.5481858,97.2528445 C17.9998201,78.5652812 25.1549051,61.3524281 35.7900994,46.8337909 C35.5648084,46.3634644 35.2049477,45.6921557 34.6790655,44.8553184 C34.0245857,43.8138438 34.4124638,41.9844439 34.8740609,41.4243599 C43.6733406,30.7476556 54.9178506,20.6950454 68.1358425,13.6811645 C85.3299968,4.55740706 105.561642,4.5994489e-14 124.999998,4.5994489e-14 L125.240441,0 C144.678796,0 164.910442,4.55740706 182.104596,13.6811645 C195.322588,20.6950454 206.567098,30.7476556 215.366378,41.4243599 C215.827975,41.9844439 216.215853,43.8138438 215.561373,44.8553184 C214.955388,45.8196242 214.569853,46.5641335 214.356645,47.034599 C224.910909,61.5110377 232.011468,78.6513621 234.45181,97.2528416 L240.74158,101.117805 C246.495824,104.653696 250,110.91048 250,117.648919 L250,144.428161 C250,148.269723 248.629103,151.986006 246.132487,154.912358 C243.078061,158.492542 239.166032,160.993961 234.396402,162.416615 C228.257488,164.24769 223.629648,164.051298 220.512884,161.827439 C219.661151,161.219715 219.15584,160.239705 219.15584,159.195562 L219.155841,156.878497 L219.113433,156.878248 L219.15584,114.898392 C219.15584,63.060582 177.000834,21.0377338 124.999998,21.0377338 C73.0046269,21.0377338 30.8530159,63.0517498 30.8441567,114.882049 Z M188.32516,141.849828 C193.311812,142.354753 198.516052,143.944151 200.093848,152.291257 C201.671644,160.638364 198.353157,169.540082 194.050575,174.311974 C189.747993,179.083867 184.279168,182.54794 179.005013,183.350835 C170.059111,184.712688 162.694358,182.637303 155.015819,181.641678 C150.083012,181.002073 144.3417,179.78297 140.853285,177.911241 C139.316978,177.086927 137.305332,174.934713 134.818346,171.454599 C134.258191,170.670763 133.999761,169.711088 134.090551,168.751958 C134.538682,164.017803 138.430306,159.617663 145.765426,155.551537 C150.750693,152.788021 158.162101,149.209845 167.608877,146.210828 C173.653041,144.29202 183.338509,141.344904 188.32516,141.849828 Z M106.928836,244.879727 C107.406033,244.131277 107.827994,243.635308 108.194721,243.39182 C108.815789,242.979462 109.682656,242.856424 110.508508,242.596109 C112.343526,242.017698 114.379578,241.634666 118.383628,241.172206 C122.219168,240.729209 126.693954,240.377895 131.675024,239.794133 C141.856005,238.600963 163.299161,235.919884 179.832554,225.257995 C188.742098,219.512497 194.857343,214.498788 198.995215,209.625878 C203.217738,204.653279 205.532222,201.757189 206.898871,199.197881 C209.862643,193.647662 215.05618,182.272241 215.664947,180.218565 C216.273713,178.164889 218.812617,178.319764 220.04838,179.329613 C221.284144,180.339462 226.641763,187.967853 225.551056,200.07498 C224.882909,207.491593 222.737725,214.703275 218.274398,221.366362 C215.45164,225.580321 211.896521,229.274372 206.582598,233.616512 C192.866334,244.824415 177.046339,247.319801 166.730283,248.379431 C156.414227,249.439062 141.346322,250.625121 129.095695,249.628705 C122.096786,249.059442 117.084452,248.365998 109.932241,246.863868 C109.041503,246.676792 108.040368,246.015412 106.928836,244.879727 Z" fill="#1D80BE" id="logo"/></g></svg>